<?xml version="1.0" standalone="no"?>
<!DOCTYPE svg PUBLIC "-//W3C//DTD SVG 20010904//EN"
 "http://www.w3.org/TR/2001/REC-SVG-20010904/DTD/svg10.dtd">
<svg version="1.0" xmlns="http://www.w3.org/2000/svg"
 width="3460.000000pt" height="3460.000000pt" viewBox="0 0 3460.000000 3460.000000"
 preserveAspectRatio="xMidYMid meet">
<metadata>
Created by potrace 1.11, written by Peter Selinger 2001-2013
</metadata>
<g transform="translate(0.000000,3460.000000) scale(0.100000,-0.100000)"
fill="#000000" stroke="none">
<path d="M23198 28225 c-2 -2 -75 -6 -163 -9 -162 -7 -197 -9 -340 -20 -125
-10 -347 -32 -415 -41 -14 -2 -79 -11 -145 -20 -175 -23 -187 -25 -215 -30
-14 -3 -42 -8 -64 -11 -21 -3 -48 -8 -60 -10 -11 -2 -34 -7 -51 -9 -16 -3 -55
-10 -85 -16 -30 -6 -68 -13 -85 -16 -16 -2 -61 -11 -100 -20 -38 -8 -81 -17
-95 -19 -14 -3 -63 -14 -110 -25 -47 -12 -94 -23 -105 -25 -11 -2 -47 -10 -80
-18 -33 -8 -127 -31 -210 -50 -434 -103 -579 -139 -737 -185 -282 -82 -619
-196 -783 -266 -16 -7 -64 -26 -105 -43 -41 -16 -102 -42 -135 -56 -33 -15
-69 -31 -80 -36 -73 -32 -386 -187 -465 -230 -329 -180 -488 -282 -900 -580
-167 -120 -298 -216 -325 -238 -5 -4 -44 -34 -85 -67 -80 -63 -302 -245 -310
-254 -3 -3 -32 -28 -65 -55 -33 -28 -67 -57 -76 -65 -9 -9 -29 -27 -45 -40
-53 -45 -159 -136 -164 -142 -5 -5 -150 -135 -219 -195 -18 -16 -50 -45 -71
-64 -21 -19 -73 -67 -116 -106 -44 -40 -92 -84 -109 -99 -33 -30 -209 -192
-260 -240 -18 -16 -79 -73 -135 -125 -56 -52 -122 -113 -145 -135 -23 -22 -93
-87 -154 -145 -62 -58 -143 -134 -180 -170 -37 -36 -141 -135 -230 -220 -737
-703 -1592 -1539 -2562 -2506 l-436 -435 -16 68 c-9 37 -30 127 -48 198 -17
72 -33 141 -35 155 -3 14 -12 52 -21 85 -16 65 -21 87 -29 125 -3 14 -10 43
-16 65 -7 22 -12 42 -12 45 -1 3 -5 11 -9 18 -5 6 -6 12 -3 12 6 0 -40 128
-70 195 -10 22 -18 42 -19 45 -3 10 -52 106 -71 138 -36 63 -140 217 -230 340
-49 68 -96 133 -104 145 -72 108 -166 222 -265 322 -111 112 -173 163 -375
309 -96 69 -179 129 -185 134 -5 4 -59 42 -120 84 -125 85 -188 121 -307 173
-46 20 -96 43 -113 50 -16 8 -61 26 -100 40 -38 15 -83 33 -100 40 -124 55
-499 166 -795 235 -113 26 -302 70 -420 98 -118 28 -240 55 -270 61 -30 6 -66
14 -80 16 -67 14 -251 45 -300 51 -30 3 -62 8 -70 9 -8 2 -44 6 -80 10 -36 3
-81 8 -100 10 -239 27 -871 28 -1095 1 -16 -2 -59 -7 -95 -11 -36 -4 -72 -9
-80 -10 -8 -2 -40 -6 -71 -9 -31 -4 -67 -9 -80 -12 -13 -2 -40 -7 -59 -10 -19
-3 -71 -12 -115 -20 -44 -9 -91 -17 -105 -20 -14 -2 -38 -7 -55 -11 -16 -4
-34 -8 -40 -9 -5 -1 -28 -6 -50 -12 -22 -6 -51 -13 -65 -16 -21 -4 -77 -17
-130 -30 -8 -3 -55 -14 -105 -25 -469 -106 -871 -216 -990 -271 -11 -5 -51
-20 -90 -33 -63 -22 -231 -92 -325 -134 -60 -27 -343 -169 -385 -193 -168 -95
-210 -120 -283 -167 -45 -29 -85 -53 -88 -53 -3 0 -10 -5 -17 -10 -7 -6 -66
-47 -132 -93 -306 -210 -644 -463 -818 -611 -65 -56 -137 -117 -160 -136 -63
-53 -406 -398 -457 -459 -25 -30 -52 -62 -60 -71 -50 -54 -203 -254 -346 -454
-27 -37 -65 -90 -84 -116 -19 -27 -41 -57 -48 -67 -7 -10 -34 -48 -60 -85 -61
-87 -174 -264 -217 -343 -12 -22 -32 -58 -45 -80 -39 -69 -202 -397 -215 -435
-6 -18 -27 -68 -35 -85 -11 -22 -32 -75 -36 -90 -1 -5 -15 -41 -29 -80 -31
-80 -105 -293 -110 -315 -2 -8 -4 -15 -5 -15 -1 0 -3 -7 -5 -15 -2 -8 -19 -71
-38 -140 -38 -136 -45 -163 -141 -570 -93 -396 -143 -623 -160 -740 -3 -19
-10 -69 -16 -110 -6 -41 -13 -91 -16 -110 -3 -19 -8 -51 -10 -70 -2 -19 -6
-53 -8 -75 -3 -22 -8 -76 -11 -120 -4 -44 -9 -96 -11 -115 -17 -173 -23 -639
-10 -875 9 -188 24 -370 31 -395 2 -8 6 -46 9 -85 4 -38 9 -83 11 -100 3 -16
7 -43 10 -60 2 -16 7 -52 10 -80 3 -27 8 -57 11 -66 2 -10 7 -30 9 -45 2 -16
6 -39 9 -50 2 -12 7 -39 10 -60 8 -51 74 -343 126 -564 23 -96 62 -258 86
-360 44 -185 55 -224 101 -375 14 -44 26 -87 28 -95 11 -49 131 -366 185 -485
46 -103 102 -216 123 -248 10 -15 15 -27 11 -27 -4 0 0 -8 8 -17 8 -10 32 -49
54 -88 21 -38 43 -78 49 -87 15 -25 139 -205 185 -268 22 -30 54 -74 70 -98
16 -23 34 -48 40 -55 6 -6 43 -57 82 -112 40 -55 75 -102 78 -105 3 -3 23 -27
44 -55 22 -27 44 -54 50 -60 6 -5 47 -53 91 -105 44 -52 84 -100 90 -106 5 -6
52 -56 103 -111 87 -94 329 -337 397 -398 162 -146 225 -200 371 -317 92 -73
334 -253 429 -319 28 -18 52 -36 55 -39 22 -24 406 -285 475 -324 17 -9 64
-37 105 -62 278 -170 679 -356 1000 -464 52 -18 102 -35 110 -38 8 -3 20 -6
25 -8 6 -1 66 -19 135 -39 69 -20 132 -38 140 -40 8 -2 94 -22 190 -45 96 -23
182 -43 190 -45 8 -2 62 -15 120 -29 212 -51 407 -95 465 -105 33 -6 71 -13
85 -16 14 -3 41 -7 60 -10 19 -3 44 -6 55 -9 63 -12 132 -21 233 -30 40 -4 82
-9 94 -11 132 -26 885 -26 1048 -1 14 2 59 7 100 11 77 7 333 42 360 50 8 2
31 6 50 9 74 11 192 36 385 82 110 25 245 57 300 69 358 83 643 158 728 190
20 8 38 14 40 13 10 -6 426 146 562 207 28 12 79 35 115 50 208 91 660 343
775 433 6 4 26 18 45 32 140 96 484 349 570 419 58 47 450 430 873 851 422
421 772 767 777 768 6 2 10 -2 11 -10 0 -7 2 -20 4 -28 11 -54 36 -164 49
-216 8 -34 17 -72 20 -85 6 -30 8 -39 41 -174 92 -386 102 -416 223 -675 9
-19 22 -41 29 -48 7 -7 13 -18 13 -23 0 -16 204 -322 263 -394 4 -5 42 -57 83
-114 171 -240 137 -202 1049 -1126 711 -720 897 -906 1006 -1005 51 -47 99
-92 108 -100 9 -9 54 -49 101 -90 47 -41 92 -82 100 -90 8 -9 29 -27 46 -40
42 -34 208 -173 214 -180 23 -26 553 -430 625 -476 17 -10 36 -25 44 -32 7 -7
46 -35 85 -62 98 -68 209 -147 221 -157 6 -5 33 -24 60 -43 28 -19 52 -37 53
-42 2 -4 8 -8 12 -8 5 0 35 -18 67 -40 32 -22 65 -45 73 -50 154 -100 257
-166 340 -216 36 -21 67 -41 70 -44 3 -3 21 -13 40 -24 55 -29 100 -55 161
-92 31 -19 59 -34 61 -34 3 0 62 -31 132 -70 69 -38 131 -70 136 -70 6 0 10
-4 10 -10 0 -5 4 -10 10 -10 5 0 97 -43 205 -95 107 -52 197 -95 199 -95 2 0
37 -15 78 -34 273 -127 750 -304 1113 -413 113 -34 593 -156 790 -202 50 -11
140 -32 200 -47 61 -14 117 -27 125 -29 8 -2 58 -13 110 -25 52 -12 106 -24
120 -26 14 -3 41 -9 60 -14 37 -10 229 -46 320 -60 30 -5 73 -11 95 -15 22 -3
65 -10 95 -15 30 -6 71 -12 90 -14 19 -3 55 -7 80 -10 107 -14 128 -16 185
-22 33 -3 70 -7 83 -9 12 -2 62 -7 110 -10 48 -4 107 -8 132 -10 301 -25 953
-25 1270 0 30 2 93 7 140 10 47 3 96 7 110 10 14 2 55 7 92 10 37 3 75 7 85 9
10 2 50 7 88 11 39 4 77 8 85 10 8 2 38 6 65 9 56 8 98 14 135 21 14 3 39 7
55 9 17 3 61 10 98 16 38 6 126 22 195 36 70 14 136 27 147 30 19 3 328 73
350 78 6 2 21 6 35 9 14 4 104 25 200 47 227 53 537 129 575 141 17 5 116 34
220 64 191 55 244 71 455 143 120 41 407 149 475 178 22 10 42 18 45 19 3 1
16 6 30 12 14 6 54 23 90 38 69 29 88 37 300 135 149 69 442 218 559 284 66
38 151 85 216 120 11 6 22 13 25 16 3 3 25 16 50 30 25 13 50 28 55 32 6 5 84
54 175 110 91 56 167 105 170 108 3 3 49 35 103 70 53 35 97 67 97 72 0 4 4 8
10 8 11 0 403 281 408 292 2 5 8 8 13 8 5 0 17 7 26 15 10 8 52 39 93 69 41
31 86 64 99 73 13 10 29 23 35 28 6 6 27 22 46 35 19 13 37 27 40 30 3 3 28
23 55 44 346 273 825 725 1055 996 12 14 36 41 53 60 18 19 68 78 112 130 44
52 85 100 91 106 14 16 62 75 145 179 132 165 523 697 637 865 18 27 77 108
91 125 4 6 10 15 12 20 2 6 47 75 99 155 53 80 124 192 159 250 35 58 74 121
86 140 13 19 35 58 51 85 123 223 174 317 174 325 0 4 3 10 8 12 8 3 185 357
245 488 68 150 97 217 137 315 23 55 45 109 50 120 6 11 21 49 34 85 13 36 30
79 37 95 7 17 13 32 14 35 5 24 39 117 45 125 3 6 12 30 19 54 7 25 18 56 24
70 5 14 11 31 13 36 1 6 23 73 47 150 40 123 86 271 93 300 1 6 26 98 54 205
43 162 64 248 105 430 2 8 13 56 25 105 12 50 23 97 25 105 2 8 19 80 38 160
19 80 38 159 40 175 3 17 13 64 22 105 9 41 19 86 21 100 2 14 9 45 14 70 11
48 55 306 65 380 3 25 8 56 10 70 2 14 7 48 10 75 3 28 12 104 20 170 8 66 17
154 21 195 3 41 7 92 9 113 28 324 28 1101 0 1377 -2 19 -7 69 -10 110 -3 41
-8 86 -10 100 -2 14 -6 54 -10 90 -4 36 -8 76 -10 90 -2 14 -7 50 -10 80 -3
30 -8 62 -10 70 -2 8 -7 40 -10 70 -10 82 -70 418 -100 555 -14 66 -28 131
-31 144 -5 23 -33 144 -40 171 -6 27 -40 170 -82 350 -86 369 -176 698 -253
932 -17 51 -32 98 -33 103 -1 6 -7 24 -13 40 -7 17 -32 86 -56 155 -25 69 -50
136 -56 150 -5 14 -22 57 -36 95 -15 39 -30 79 -35 90 -21 46 -59 136 -60 140
-2 8 -31 79 -50 121 -11 23 -40 88 -65 145 -107 240 -309 630 -467 902 -143
246 -470 756 -526 820 -8 9 -20 26 -26 37 -18 33 -339 475 -348 478 -4 2 -8
10 -8 17 0 7 -3 15 -8 17 -4 2 -34 39 -67 83 -75 101 -58 79 -172 225 -102
130 -121 155 -138 174 -65 74 -86 99 -122 142 -23 28 -55 64 -70 80 -15 17
-57 61 -92 100 -189 205 -478 485 -670 649 -13 11 -29 25 -35 30 -27 25 -285
234 -321 261 -22 16 -42 31 -45 35 -3 3 -61 46 -130 97 -69 50 -129 95 -135
100 -5 4 -32 23 -60 42 -27 19 -54 38 -60 43 -27 23 -332 239 -345 245 -8 3
-17 9 -20 12 -7 10 -244 164 -345 225 -44 26 -91 55 -105 65 -57 39 -409 230
-590 321 -157 78 -411 196 -535 249 -11 4 -36 15 -55 23 -31 13 -163 65 -365
143 -86 33 -372 130 -490 165 -248 76 -561 160 -740 199 -22 5 -124 29 -227
54 -103 25 -198 48 -210 50 -13 3 -122 27 -243 55 -121 28 -238 53 -260 56
-22 4 -47 8 -57 11 -9 3 -40 9 -70 14 -29 5 -64 11 -78 14 -42 8 -262 45 -310
51 -25 3 -56 8 -70 10 -14 2 -43 6 -65 9 -22 3 -60 8 -85 11 -25 3 -61 7 -80
9 -35 5 -100 12 -175 21 -22 2 -71 7 -110 10 -38 3 -92 7 -120 10 -27 2 -88 7
-135 9 -47 3 -128 9 -180 12 -88 6 -817 13 -822 9z m737 -6449 c28 -3 77 -8
110 -11 68 -6 370 -43 400 -49 11 -2 40 -7 65 -11 51 -7 60 -10 220 -61 100
-32 230 -77 295 -103 210 -85 313 -130 480 -212 190 -92 384 -195 395 -209 3
-4 13 -9 22 -13 52 -19 387 -244 428 -287 3 -3 32 -27 65 -55 156 -130 212
-182 420 -390 301 -300 432 -465 595 -750 191 -332 362 -713 485 -1082 56
-167 69 -214 80 -297 3 -27 8 -52 10 -55 1 -3 6 -35 10 -71 4 -36 9 -74 11
-85 2 -11 6 -47 9 -80 3 -33 7 -76 10 -95 38 -319 34 -887 -10 -1240 -3 -25
-8 -67 -11 -95 -3 -27 -9 -75 -14 -105 -5 -30 -12 -73 -15 -95 -10 -71 -13
-84 -74 -264 -52 -155 -115 -322 -156 -416 -63 -144 -145 -320 -172 -368 -18
-33 -33 -65 -33 -72 0 -8 -4 -16 -9 -19 -5 -3 -26 -39 -46 -78 -21 -40 -43
-80 -49 -88 -7 -8 -18 -28 -26 -45 -8 -16 -17 -32 -20 -35 -3 -3 -10 -14 -17
-25 -127 -214 -161 -263 -318 -449 -151 -179 -347 -384 -550 -575 -158 -149
-333 -287 -470 -370 -73 -45 -137 -81 -143 -81 -6 0 -12 -4 -14 -9 -3 -10 -1
-8 -255 -135 -231 -116 -285 -140 -467 -211 -150 -59 -396 -145 -396 -139 0 3
-9 0 -19 -6 -22 -11 -131 -35 -206 -44 -27 -4 -57 -9 -65 -11 -8 -2 -40 -6
-71 -10 -31 -3 -65 -7 -75 -9 -41 -8 -183 -20 -384 -32 -221 -14 -769 -8 -880
10 -14 3 -65 7 -115 11 -49 4 -92 8 -95 10 -3 1 -39 6 -80 10 -41 4 -77 8 -80
10 -3 2 -30 6 -60 10 -148 20 -163 24 -332 81 -342 116 -669 269 -1023 477
-66 38 -121 74 -123 79 -2 4 -8 8 -14 8 -6 0 -26 11 -44 25 -18 14 -35 25 -38
25 -18 0 -342 251 -381 295 -5 6 -17 16 -27 21 -9 5 -34 25 -55 44 -21 20 -50
45 -65 56 -44 34 -320 282 -444 399 -261 245 -518 499 -1281 1267 -101 100
-204 201 -230 223 -26 22 -58 50 -70 63 -13 12 -26 22 -27 22 -2 0 -51 35
-109 78 -57 42 -139 102 -182 132 -43 30 -105 75 -139 100 -206 152 -503 301
-691 346 -5 1 -95 23 -199 48 -104 26 -203 49 -219 52 -17 2 -33 7 -37 9 -3 2
-17 6 -31 9 -13 2 -55 12 -94 21 -38 9 -74 18 -80 19 -5 1 -36 8 -68 15 l-59
13 380 376 c1068 1059 1689 1669 2217 2177 108 105 227 219 264 255 131 126
396 379 426 405 17 15 66 62 110 104 45 42 117 109 160 150 44 41 103 95 130
121 63 59 408 371 469 423 12 10 35 31 51 45 17 15 57 50 90 77 33 28 71 60
85 73 31 29 170 121 230 153 24 13 50 29 56 35 30 27 495 249 647 309 157 62
385 142 427 150 10 2 27 8 37 13 10 5 41 13 68 16 53 8 76 11 140 21 74 11 99
14 200 25 55 6 111 13 125 15 14 2 81 7 150 10 69 4 127 9 129 11 6 6 698 -3
756 -10z m-16655 -3771 c47 -4 101 -8 120 -10 19 -2 63 -6 98 -10 35 -4 71 -8
80 -10 15 -2 105 -15 142 -20 24 -3 113 -17 135 -21 11 -2 31 -6 45 -9 72 -13
241 -46 285 -55 28 -6 64 -13 80 -16 17 -2 37 -7 45 -9 8 -2 29 -7 45 -10 17
-2 55 -9 85 -15 30 -5 73 -12 95 -15 83 -12 84 -10 -12 -107 -227 -232 -453
-447 -567 -540 -12 -10 -28 -23 -36 -31 -109 -96 -322 -247 -349 -247 -6 0
-11 -4 -11 -8 0 -5 -83 -51 -186 -102 -196 -99 -197 -99 -314 -85 -33 4 -134
46 -244 103 -113 58 -218 159 -270 256 -20 37 -36 74 -36 82 0 8 -4 14 -9 14
-21 0 -29 158 -16 329 6 80 7 82 71 219 69 145 141 224 253 277 42 20 83 40
91 44 16 9 237 7 380 -4z"/>
</g>
</svg>
